<svg xmlns="http://www.w3.org/2000/svg" width="500" height="500" fill="none" viewBox="0 0 500 500"><path fill="#24292e" d="M0 0h500v500H0z"/><path fill="#fff" fill-rule="evenodd" d="M250 100c-82.875 0-150 67.125-150 150 0 66.375 42.937 122.437 102.562 142.312 7.5 1.313 10.313-3.187 10.313-7.125 0-3.562-.187-15.375-.187-27.937-37.688 6.937-47.438-9.188-50.438-17.625-1.688-4.313-9-17.625-15.375-21.188-5.25-2.812-12.75-9.75-.187-9.937 11.812-.188 20.25 10.875 23.062 15.375 13.5 22.687 35.063 16.312 43.688 12.375 1.312-9.75 5.249-16.313 9.562-20.063-33.375-3.75-68.25-16.687-68.25-74.062 0-16.313 5.813-29.813 15.375-40.313-1.5-3.75-6.75-19.125 1.5-39.75 0 0 12.563-3.937 41.25 15.375 12-3.375 24.75-5.062 37.5-5.062s25.5 1.687 37.5 5.062c28.688-19.5 41.25-15.375 41.25-15.375 8.25 20.625 3 36 1.5 39.75 9.563 10.5 15.375 23.813 15.375 40.313 0 57.562-35.062 70.312-68.437 74.062 5.437 4.688 10.125 13.688 10.125 27.75 0 20.063-.188 36.188-.188 41.25 0 3.938 2.813 8.625 10.313 7.125C357.063 372.437 400 316.187 400 250c0-82.875-67.125-150-150-150" clip-rule="evenodd"/></svg>